<svg xmlns="http://www.w3.org/2000/svg" viewBox="0 0 80 80" id="diamond">
  <path d="M74.966 23.663a1.983 1.983 0 0 0-.113-.409c-.003-.007-.003-.015-.006-.023l-.003-.007-.002-.005-7.067-16.988c-.009-.022-.026-.038-.036-.06a1.98 1.98 0 0 0-.242-.4c-.015-.02-.026-.04-.042-.06a2.004 2.004 0 0 0-.315-.303c-.022-.016-.046-.026-.067-.04-.034-.025-.07-.044-.106-.066a1.986 1.986 0 0 0-.39-.185c-.033-.011-.062-.025-.094-.034a1.989 1.989 0 0 0-.516-.077c-.013 0-.025-.006-.038-.006H14.07c-.013 0-.025.005-.038.006a1.988 1.988 0 0 0-.515.077c-.033.01-.063.023-.096.035a1.984 1.984 0 0 0-.388.184c-.036.022-.072.041-.107.065-.022.015-.045.025-.067.041-.119.091-.222.194-.315.304-.016.018-.027.04-.042.059a1.98 1.98 0 0 0-.242.4c-.01.022-.027.038-.036.06L5.158 23.22l-.002.005-.003.007c-.003.008-.003.016-.006.023-.052.13-.089.267-.113.409-.009.05-.01.1-.015.152-.006.062-.019.122-.019.185 0 .04.01.077.012.116a1.984 1.984 0 0 0 .084.466c.014.045.025.09.042.134.053.139.118.272.2.394 0 .002.001.005.003.007l33 49c0 .002.002.003.003.004a1.994 1.994 0 0 0 .362.396c.11.094.225.179.352.247l.016.007a1.993 1.993 0 0 0 .49.175c.142.032.286.054.436.054a1.985 1.985 0 0 0 .54-.08c.134-.038.264-.086.386-.15l.016-.006a2.01 2.01 0 0 0 .43-.317c.105-.1.202-.206.284-.326l.003-.004 33-49 .004-.007a1.99 1.99 0 0 0 .2-.394c.016-.044.027-.09.04-.134a1.97 1.97 0 0 0 .085-.466c.003-.04.012-.076.012-.116 0-.063-.013-.123-.019-.185-.004-.051-.006-.101-.015-.152zM14.583 10.977 22.966 22H9.998l4.585-11.023zM31.047 22 40 10.293 48.953 22H31.047zM50.4 26 40 65.201 29.6 26h20.8zM44.047 9h17.848l-8.899 11.702L44.047 9zM27.004 20.702 18.104 9h17.849l-8.95 11.702zM25.46 26l9.557 36.022L10.758 26h14.703zm29.078 0h14.703l-24.26 36.022L54.54 26zm2.495-4 8.383-11.023L70.002 22H57.034z"></path>
</svg>
